<?xml version="1.0" encoding="UTF-8"?>
<!DOCTYPE svg PUBLIC "-//W3C//DTD SVG 1.1//EN" "http://www.w3.org/Graphics/SVG/1.1/DTD/svg11.dtd">
<!-- Creator: CorelDRAW 2019 (64-Bit) -->
<svg xmlns="http://www.w3.org/2000/svg" xml:space="preserve" width="14.6875in" height="5.85417in" version="1.1" style="shape-rendering:geometricPrecision; text-rendering:geometricPrecision; image-rendering:optimizeQuality; fill-rule:evenodd; clip-rule:evenodd"
viewBox="0 0 14687.5 5854.17"
 xmlns:xlink="http://www.w3.org/1999/xlink">
 <defs>
  <style type="text/css">
   <![CDATA[
    .fil1 {fill:#1A1A1A}
    .fil0 {fill:#1A6AFF}
    .fil3 {fill:#1A1A1A;fill-rule:nonzero}
    .fil4 {fill:#1A1A1A;fill-rule:nonzero}
    .fil2 {fill:#1A6AFF;fill-rule:nonzero}
   ]]>
  </style>
 </defs>
 <g id="Layer_x0020_1">
  <metadata id="CorelCorpID_0Corel-Layer"/>
  <g id="_1814759276752">
   <polygon class="fil0" points="4354.16,2695.61 4354.25,2695.87 4354.85,2695.87 "/>
   <path class="fil0" d="M4742.91 3898.66c141.56,435.65 335.74,1446.07 607.15,1664.62 410.04,330.16 1000.35,94.77 1440.61,-96.92 232.38,-101.17 248.51,-75.69 278.31,-350.81 -167.28,-43.17 -88.22,13.38 -351.82,64.65 -442.18,86 -669.48,-165.65 -834.62,-572.7 -140.7,-346.8 -285.13,-773.63 -412.19,-1188.1 -21.42,18.16 -43.31,35.75 -65.02,52.87 -54.45,42.94 -110.41,84.19 -166.94,124.35 -104.12,73.96 -216.81,151.33 -328.35,213.56l-120.9 67.46 -2.35 1.12c-14.64,6.96 -29.26,13.59 -43.87,19.9z"/>
   <path class="fil0" d="M3767.31 4980.54c70.53,-75.77 145.98,-161.25 192.33,-208.68 32.57,-33.34 33.57,-41.48 60.89,-75.45 82.67,-102.77 152.98,-185.83 233.76,-296.64l288.39 -435.63c-117.93,25.77 -238.5,29.07 -367.7,7.12 -12.33,-2.1 -24.74,-4.67 -37.14,-7.56 -33.46,50.98 -65.82,99.53 -98.67,145.47l54.35 30.72c26.63,13.68 42.19,26.98 59.19,52.37l82.99 123.95 -149.17 0c-65.22,0 -129.73,-6.54 -192.83,-19.06 -137.44,173.71 -266.08,333.49 -413.31,479.31l56.29 35 1.32 0.9c78.13,53.04 154.74,109.98 229.31,168.18z"/>
   <path class="fil0" d="M717.88 4695.96c38.13,164.36 90.7,316.01 160.24,444.5 246.99,456.46 792.08,681.51 1513.29,580.55 327.08,-45.8 538.65,-145.83 785.5,-277.09 47.33,-25.18 91.04,-53.14 133.81,-82.16 -168.06,-45 -337.9,-82.98 -507.35,-122.5 -149.78,57.18 -319.06,91.04 -493.58,72.37 -273.83,-29.28 -455.97,-232.76 -577.08,-506.47 -23.72,-17.95 -47.06,-36.42 -70.07,-55.37 13.3,61.72 44.3,124.26 72.46,170.93 28.13,46.6 58.78,89.85 93.69,131.57 27.15,32.46 56.3,63.33 82.53,96.5 9.75,12.32 19.07,24.96 27.81,38.01l92.01 137.42 -164.8 -13.74c-31.08,-2.59 -60.04,-11.54 -90.27,-17.97 -247.67,-52.66 -570.61,-170.82 -775.51,-320.15l-1.32 -0.96 -137.83 -109.38 -1.53 -1.35c-49.06,-43.21 -102.67,-105.24 -142.01,-164.73z"/>
   <path class="fil0" d="M5050.42 2077.64c-125.94,-215.09 -181.01,-528.27 -346.37,-808.55 -130.15,-220.66 -299.23,-411.97 -535.21,-526.02 -102.65,-49.62 -213.24,-87.73 -328.9,-115.24l-74.19 168.37 -0.57 1.18c-16.65,34.65 -32.11,70.69 -47.78,105.81 -29.06,65.13 -57.92,130.36 -86.63,195.65 -10.22,23.22 -20.41,46.46 -30.58,69.7 83.2,81.03 153.75,176.02 216.57,277.81 99.48,47.06 194.34,102.67 279.16,176.82 12.38,10.82 24.92,19.98 36.8,31.73 54.65,54.03 95.82,108.94 123.69,180.93 22.74,58.75 36.02,122.43 56.33,182.54 38.73,114.63 85.93,218.39 148.2,321.93 5.31,8.83 19.56,33.47 27.69,41.36 4.93,1.93 13.19,3.53 17.91,4.61 19.4,4.44 38.59,8.81 57.81,14.07 192.52,52.69 385.05,107.18 574.43,170.33 46.59,15.53 93.1,31.57 139.39,48.22 16.32,-27.1 43.39,-67.21 83.56,-142.43 217.15,-406.55 449.12,-872.71 625.88,-1299.68 25.25,-61.01 10.2,-126.34 -18.24,-188.19 -26.6,-57.85 -215.94,-168.96 -275.45,-209.51 -38.12,-25.99 -104.02,-77.07 -143.43,-95.41 -19.06,6.5 -107.08,49.52 -118.12,60.3 -33.81,33.04 -34.87,99.5 -46.28,149.18 -67.52,265.97 -189,909.73 -335.66,1184.49z"/>
   <path class="fil1" d="M1054.41 2282.62l8.58 -5.06 -8.58 5.06zm4682.4 681.13l0 15.96c-0.7,6.35 -2.23,12.96 -4.75,19.87 -29.17,80.09 -126.85,181.89 -187.76,243.51 -13.2,13.36 -19.76,16.97 -32.99,28.62 -11.35,10 -19.85,20.07 -30.76,30.86 -128.42,127.07 -464.74,357.6 -609.33,438.05l-118.63 66.2c-176.41,83.84 -352.81,121.82 -564.28,85.9 -119.16,-20.24 -413.86,-136.68 -503.15,-70.74 -106.36,78.55 196.23,287.41 252.57,321.33l118.09 66.74c15.88,8.02 21.08,12.13 30.7,26.5 -220.53,0 -420.19,-80.58 -576.5,-198.02 -191.83,-144.13 -216.93,-333.43 -47.39,-500.68 11.28,-11.13 22.91,-19.64 36.04,-29.97 14.56,-11.47 23.29,-16.8 39.59,-26.42 156.77,-92.52 367.8,-77.73 539.48,-32.67 212.75,55.84 441.33,116.18 672.21,69.37 67.68,-13.72 132.39,-39.17 195.34,-64.31 17.1,-6.83 29.66,-12.18 46.54,-19.47 88.67,-38.29 163.26,-52.39 115.05,-169.79 -74.94,-182.47 4.19,-250.36 9.41,-313.06 -16.87,-3.93 -20.97,-10.03 -37.14,-15.67 -60.84,-21.22 -453.61,-112.44 -549.89,-136.62 -15.58,-3.91 -30.02,-6.43 -42.85,-9.96 -8.17,-2.24 -11.69,-3.03 -20.65,-5.75l-18.38 -8.02c54.81,0 202.09,15.76 267.7,22.75 32.42,3.45 132.06,5.96 154.77,16.86 -4.43,-10.98 -13.09,-11.13 -24.39,-15.22 -205.65,-74.41 -405.28,-163.01 -613.13,-231.81 -37.26,-12.34 -72.39,-24.26 -113.45,-36.18 -86.21,-25.03 -426.84,-91.02 -464.82,-124.88l-277.14 -308.16c-13.46,-13.54 -59.91,-61.47 -64.93,-80.29 99.56,23.19 244.85,72.74 346.08,102.79 36.06,10.71 198.49,53.55 228.72,70.53 22.62,12.71 138.87,115.85 161.2,138.06 14.6,14.52 62.08,61.63 82.53,67.09 -12.97,-19.37 -25.45,-33.24 -40.62,-51.8l-121.22 -151.62c-56.11,-64.17 -108.15,-137.42 -163.81,-201.45l0 88.02 -172.14 -47.9c-29.55,-8.69 -56.12,-15.13 -86.6,-23.42l-423.38 -113.51c-6.88,7.05 37.39,64.45 42.15,72.27l72.06 112.77c8.44,14.13 14.32,23.23 23.98,37.63 13.16,19.62 40.98,55.39 46.65,76.58 -29.74,-2.48 -86.2,-25.76 -118.26,-35.77 -36.07,-11.26 -83.46,-22.64 -123.37,-30.66 -82.31,-16.54 -172.69,-31.44 -264.69,-38.96 -126.65,-10.35 -433.69,3.37 -546.36,38.48l-9.38 3.83c-0.48,-0.9 -2,0.88 -2.93,1.47 96.89,22.57 355.52,202.56 428,276.13 39.02,39.61 89.43,80.66 124.65,126.2 10.87,14.06 20.01,21.03 28.26,33.35 -61.83,0 -111.39,-4.7 -176.06,-4.37 -57.81,0.3 -114.47,-9.23 -172.8,-1.23 -53.55,7.34 -118.42,-0.63 -173.63,6.8 -23.71,3.2 -57.38,5.44 -84.42,8 -121.24,11.45 -263.93,39.46 -375.01,73.87 -46.44,14.38 -90.53,28.01 -134.65,45.79 -30.2,12.16 -99.67,34.43 -124.46,55.97l100.48 9.54c30.17,3.22 66.73,5.22 100.08,9.94 147.85,20.93 343.52,27.37 496.71,48.98 155.44,21.93 320.35,42.34 470.08,71.21 61.17,11.8 123.67,25.6 180.18,39.86 35.89,9.06 145.36,42.8 170.73,44.9l0 8.8c-27.26,0 -64.52,8.06 -88.4,12.82 -263.16,52.47 -483.19,131.61 -698.09,292.07l-156.37 138.48c-162.16,161.9 -268.7,419.77 -125.66,633.95 92.7,138.79 252.11,229.17 406.76,284.16 156.27,55.57 311.33,114.29 460.85,186.06l195.1 99.75c11.76,6.57 21.32,10.18 32.02,16.39l366.28 227.82c136.36,92.58 349.75,256.74 471.24,373.7l50.57 46.24c75.99,70.29 227.29,223.07 292.8,301.31 20.77,24.81 106.61,108 108.72,133.32 -17.18,-1.43 -146.22,-78.05 -163.03,-87.82 -51.44,-29.9 -110.39,-55.55 -164.05,-82.4l-174.04 -76.8c-119.69,-49.02 -237.59,-97.08 -362.98,-134.3l-188.59 -57.85c-262.91,-71.96 -533.6,-126.09 -796.57,-193.6 -64.91,-16.67 -129.61,-34.96 -192.15,-54.29 -107.72,-33.3 -171.45,-61.63 -270.26,-103.8 -30.5,-13.02 -52.54,-27.99 -80.87,-42.36 -54.61,-27.7 -103.12,-60.41 -152.87,-93.57 -62.4,-41.61 -118.99,-84.83 -175.63,-132.43 -13.71,-11.52 -19.99,-17.44 -32.79,-28.82 -13.75,-12.21 -52.1,-52.15 -67.07,-56.15 -4.2,18.01 -9.58,28.03 -13.78,47.83 -23.5,110.86 31.81,237.32 84.99,325.43 87.27,144.59 153.85,191.32 206.04,269.25 -23.97,-2 -59.03,-11.97 -80.31,-16.5 -233.41,-49.63 -551.36,-165.37 -745.17,-306.61l-134.95 -107.1c-53.03,-46.7 -116.53,-124.2 -149.94,-184.51 -158.35,-285.76 -84.99,-580.81 73.61,-844.53 16.04,-26.68 88.67,-123.7 90.61,-147.03 -49.86,33.39 -94.07,78.74 -140.83,114.42 -46.98,35.85 -86.49,85.59 -126.57,128.67 -81.74,87.85 -149.31,190.62 -215.81,290.28 -22.83,34.22 -42.68,66.75 -64.41,102.81 -11.56,19.19 -19.19,33.63 -30.8,52.81 -10.21,16.86 -19.76,40.41 -33.29,50.33 -4.63,-9.65 -15.04,-59.56 -18.02,-74.4 -21.41,-106.52 -35.53,-217.35 -43.85,-325.81 -2.16,-28.11 -4.14,-53.61 -4.14,-88.28l0 -94.46c0.39,-85.39 3.12,-149.25 18.88,-256.33 14.98,-101.76 37.64,-203.92 69.7,-299.96 15.03,-45.03 29.88,-91.94 49.35,-135.48 55.94,-125.16 118.27,-245.35 198.38,-356.11 26.49,-36.62 53.21,-69.2 81.1,-103.73 54.36,-67.3 121.19,-126.53 184.39,-185.28l203.54 -161.72 -193.71 83.54c-160.96,72.31 -310.8,140.39 -464.55,230.77 -29.67,17.44 -56.41,35.57 -85.47,50.95 0,-41.31 81.28,-233.02 98.32,-271.34 19.98,-44.94 37.1,-83.12 58.64,-126.19 76.98,-153.96 211.22,-387.11 319.45,-507.89 14.69,-16.39 24.97,-32.74 39.58,-48.43l132.02 -145.23 294.62 -255.48c19.72,-13.42 33.34,-25.31 53.68,-38.73 162.39,-107.14 152,-83.87 136.51,-162 -3.09,-15.59 -4.29,-21.5 -7.33,-36.68 -9.4,-46.99 -18.46,-102.48 -29.7,-150.73 16.35,3.81 33.59,17.89 48.2,26.61l317.06 202.22 140.83 -378.46 13.2 0c2.57,30.96 81.41,259.6 83.61,286.05 13.96,-10.23 5.81,-2.73 11.84,-23.37 32.85,-112.38 97.2,-231.14 165.39,-323.09 34.49,-46.5 141.06,-167.68 188.03,-203.64 12.76,-9.77 22.24,-19.22 35.82,-30.19 150.7,-121.7 264.84,-191.39 445.75,-267.17 53.7,-22.49 242.76,-94.3 292.96,-94.3 -9.77,41.91 -25.05,83.44 -36.15,126.68 -35.79,139.48 -65.51,243.71 -96.2,392.29 -18.51,89.62 -37.28,177.34 -53.11,272.55 -10.05,60.44 -38.99,230.93 -38.99,286.67 0.61,-0.88 1.3,-2.19 1.61,-2.79l108.93 -317.95c4.74,-14.2 9.35,-25.68 15.35,-41.85 5.76,-15.5 9.34,-22.16 21.72,-31.09 33.89,-24.43 447.96,-225.36 494.9,-248.83l286.05 -140.83c-2.06,24.76 -64.93,153.32 -79.14,184.91l-80.76 183.29c-22.82,47.5 -265.42,594.49 -266.98,613.18 17.46,4.07 29.22,9.3 45.87,15.74 199.55,77.2 408.39,148.98 571.22,291.33 12.36,10.81 21.82,17.14 33.21,28.4 118.77,117.44 110.93,185.39 160.56,332.32 43.09,127.53 91.23,230.79 155.4,337.49 52.76,87.73 53.84,69.32 150.63,95.81 188.99,51.72 386.1,107.66 570.26,169.06 134.48,44.84 404.36,140.37 524.59,214.74 38.96,24.09 93.14,55.11 98.65,102.8zm-2812.08 -1785.72c0,22.46 0.06,7.3 -4.4,13.2 0,-23.27 0.03,-6.56 4.4,-13.2z"/>
  </g>
  <g id="_1814759272816">
   <path class="fil2" d="M7420.56 1714.2l343.28 0 0 1370.52 -343.28 0 0 -145.83c-67.11,63.67 -134.64,109.26 -202.18,137.22 -67.54,27.96 -141.1,42.16 -219.82,42.16 -177.66,0 -330.8,-68.4 -460.28,-205.62 -129.48,-136.8 -194.01,-307.14 -194.01,-510.61 0,-211.21 62.8,-384.14 187.98,-519.21 125.18,-134.65 277.03,-202.18 455.98,-202.18 82.59,0 159.59,15.48 231.86,46.03 72.27,30.54 138.94,77 200.46,138.09l0 -150.56zm-361.77 281.33c-106.68,0 -195.3,37.43 -265.41,112.7 -70.55,74.85 -105.82,171.2 -105.82,288.64 0,118.3 35.7,215.52 107.54,292.09 71.84,76.14 160.02,114.43 264.98,114.43 107.97,0 197.88,-37.43 268.85,-112.7 71.41,-74.85 107.11,-173.36 107.11,-295.1 0,-119.15 -35.7,-215.51 -107.11,-289.5 -70.98,-73.56 -161.31,-110.55 -270.15,-110.55zm1015.2 -810.44l343.28 0 0 1899.63 -343.28 0 0 -1899.63zm997.99 529.11l0 150.56c61.94,-61.09 129.05,-107.54 201.32,-138.09 72.27,-30.54 149.7,-46.03 231.86,-46.03 178.52,0 330.37,67.54 455.55,202.18 125.18,135.07 187.55,308 187.55,519.21 0,203.47 -64.52,373.82 -194,510.61 -129.05,137.22 -282.19,205.62 -459.43,205.62 -78.72,0 -152.28,-14.2 -220.24,-42.16 -67.97,-27.96 -135.5,-73.99 -202.61,-138.09l0 647.41 -343.28 0 0 -1871.24 343.28 0zm360.48 281.33c-107.97,0 -197.88,36.99 -268.85,110.55 -71.41,73.99 -107.11,170.35 -107.11,289.5 0,121.74 35.7,220.25 107.11,295.1 70.98,75.28 160.88,112.7 268.85,112.7 104.96,0 193.15,-38.29 264.98,-114.43 71.84,-76.57 107.54,-173.79 107.54,-292.09 0,-117.44 -35.27,-213.8 -105.82,-288.64 -70.11,-75.28 -159.16,-112.7 -266.7,-112.7zm1002.72 -810.44l343.28 0 0 669.34c67.11,-58.07 134.21,-101.52 202.18,-130.34 67.54,-28.82 136.36,-43.45 205.62,-43.45 135.5,0 249.93,46.89 342.85,141.09 79.58,81.3 119.16,200.89 119.16,358.33l0 904.65 -338.11 0 0 -600.09c0,-158.3 -7.31,-265.85 -22.37,-321.77 -15.06,-56.35 -40.87,-98.08 -77.43,-126.04 -36.14,-27.53 -81.3,-41.3 -134.65,-41.3 -69.26,0 -129.05,23.23 -178.95,69.26 -49.47,46.03 -83.89,108.83 -103.24,188.41 -9.89,41.3 -15.06,135.07 -15.06,281.76l0 549.76 -343.28 0 0 -1899.63zm2560.8 529.11l343.28 0 0 1370.52 -343.28 0 0 -145.83c-67.11,63.67 -134.64,109.26 -202.18,137.22 -67.54,27.96 -141.1,42.16 -219.82,42.16 -177.66,0 -330.8,-68.4 -460.28,-205.62 -129.48,-136.8 -194.01,-307.14 -194.01,-510.61 0,-211.21 62.8,-384.14 187.98,-519.21 125.18,-134.65 277.03,-202.18 455.98,-202.18 82.59,0 159.59,15.48 231.86,46.03 72.27,30.54 138.94,77 200.46,138.09l0 -150.56zm-361.77 281.33c-106.68,0 -195.3,37.43 -265.41,112.7 -70.55,74.85 -105.82,171.2 -105.82,288.64 0,118.3 35.7,215.52 107.54,292.09 71.84,76.14 160.02,114.43 264.98,114.43 107.97,0 197.88,-37.43 268.85,-112.7 71.41,-74.85 107.11,-173.36 107.11,-295.1 0,-119.15 -35.7,-215.51 -107.11,-289.5 -70.98,-73.56 -161.31,-110.55 -270.15,-110.55zm1890.17 -87.33l-212.5 213.8c-86.04,-86.04 -164.33,-129.05 -234.87,-129.05 -38.28,0 -68.4,8.17 -90.33,24.52 -21.94,16.35 -32.69,36.56 -32.69,60.65 0,18.5 6.88,35.28 20.65,50.76 13.76,15.49 48.18,36.57 102.81,63.67l125.61 62.81c132.49,64.95 223.69,131.63 273.16,199.17 49.47,67.97 73.99,147.12 73.99,238.31 0,121.31 -44.74,222.83 -134.21,303.7 -89.48,81.3 -209.5,121.74 -360.06,121.74 -199.6,0 -359.62,-77.86 -478.78,-234.02l212.07 -230.57c40.44,46.89 87.76,85.17 142.39,114 54.2,28.82 102.38,43.45 144.54,43.45 45.17,0 82.16,-10.76 109.69,-32.69 27.96,-21.94 41.72,-46.89 41.72,-75.28 0,-52.91 -49.9,-104.53 -150.13,-154.43l-115.72 -58.07c-221.97,-111.42 -332.95,-250.79 -332.95,-418.13 0,-107.97 41.73,-200.46 125.18,-277.03 83.45,-76.57 190.13,-114.85 320.04,-114.85 89.05,0 172.5,19.79 251.22,58.93 78.29,39.15 144.54,95.5 199.17,168.63z"/>
   <polygon class="fil3" points="6390.74,3289.6 8442.89,3289.6 8442.89,3583.94 6390.74,3583.94 "/>
   <polygon class="fil3" points="9391.3,3289.6 14468.59,3289.6 14468.59,3583.94 9391.3,3583.94 "/>
   <path class="fil4" d="M7065.3 4077.32l-75.22 71.43c-51.15,-53.89 -108.57,-80.84 -172.54,-80.84 -53.89,0 -99.42,18.44 -136.31,55.2 -37.02,36.76 -55.46,82.02 -55.46,135.91 0,37.54 8.24,70.9 24.59,99.94 16.35,29.17 39.5,52.06 69.33,68.68 29.96,16.61 63.18,24.85 99.81,24.85 31.13,0 59.65,-5.76 85.42,-17.4 25.9,-11.64 54.29,-32.83 85.16,-63.44l72.86 76.13c-41.6,40.68 -80.97,68.94 -117.99,84.63 -37.02,15.83 -79.4,23.68 -126.89,23.68 -87.64,0 -159.46,-27.73 -215.32,-83.33 -55.85,-55.46 -83.72,-126.76 -83.72,-213.48 0,-56.25 12.69,-106.09 38.2,-149.78 25.38,-43.69 61.74,-78.75 109.23,-105.3 47.35,-26.56 98.37,-39.9 153.18,-39.9 46.44,0 91.18,9.81 134.35,29.43 43.04,19.62 80.19,47.48 111.32,83.59zm724.68 -98.89l113.94 0c62.27,0 106.74,5.5 133.17,16.61 26.56,11.12 47.74,29.69 63.83,55.46 16.09,25.77 24.2,56.25 24.2,91.57 0,37.02 -8.89,68.02 -26.56,92.87 -17.79,24.99 -44.48,43.82 -80.19,56.51l133.04 250.51 -117.2 0 -126.63 -238.6 -10.86 0 0 238.6 -106.74 0 0 -563.54zm106.74 220.55l34.01 0c34.54,0 58.21,-4.45 71.3,-13.47 12.95,-9.03 19.49,-23.94 19.49,-44.87 0,-12.3 -3.27,-23.02 -9.68,-32.18 -6.41,-9.15 -15.04,-15.7 -25.9,-19.62 -10.73,-4.06 -30.61,-6.02 -59.52,-6.02l-29.7 0 0 116.16zm965.76 -220.55l307.67 0 0 105.17 -200.93 0 0 101.25 200.93 0 0 103.6 -200.93 0 0 148.34 200.93 0 0 105.17 -307.67 0 0 -563.54zm1203.19 0l108.05 0 216.89 563.54 -111.58 0 -43.95 -116.16 -231.02 0 -45 116.16 -111.58 0 218.2 -563.54zm54.16 149.78l-76.4 193.99 152.4 0 -76 -193.99zm922.72 -149.78l311.6 0 0 105.96 -102.82 0 0 457.58 -109.1 0 0 -457.58 -99.68 0 0 -105.96zm1000.3 0l106.74 0 0 563.54 -106.74 0 0 -563.54zm808.26 0l110.28 0 141.67 400.29 144.42 -400.29 109.88 0 -203.41 563.54 -103.47 0 -199.36 -563.54zm1216.67 0l307.67 0 0 105.17 -200.93 0 0 101.25 200.93 0 0 103.6 -200.93 0 0 148.34 200.93 0 0 105.17 -307.67 0 0 -563.54z"/>
  </g>
 </g>
</svg>
